<mxfile host="Electron" agent="Mozilla/5.0 (Macintosh; Intel Mac OS X 10_15_7) AppleWebKit/537.36 (KHTML, like Gecko) draw.io/24.7.8 Chrome/128.0.6613.36 Electron/32.0.1 Safari/537.36" version="24.7.8">
  <diagram name="Page-1" id="929967ad-93f9-6ef4-fab6-5d389245f69c">
    <mxGraphModel dx="1272" dy="1369" grid="1" gridSize="10" guides="1" tooltips="1" connect="1" arrows="1" fold="1" page="0" pageScale="1.5" pageWidth="1169" pageHeight="826" background="none" math="0" shadow="0">
      <root>
        <mxCell id="0" style=";html=1;" />
        <mxCell id="1" style=";html=1;" parent="0" />
        <mxCell id="1672d66443f91eb5-23" value="&lt;font style=&quot;border-color: var(--border-color); font-size: 16px;&quot;&gt;&lt;i style=&quot;&quot;&gt;STD_meg_qc()&lt;/i&gt;&lt;br&gt;&lt;/font&gt;" style="text;strokeColor=none;fillColor=none;html=1;fontSize=28;fontStyle=1;verticalAlign=middle;align=center;fontFamily=Helvetica;" parent="1" vertex="1">
          <mxGeometry x="198" y="-270" width="1010" height="60" as="geometry" />
        </mxCell>
        <mxCell id="_AQNHTN7oGHshsWPynQ7-32" value="&lt;p style=&quot;line-height: 18px;&quot;&gt;&lt;br&gt;&lt;/p&gt;" style="text;html=1;align=center;verticalAlign=middle;resizable=0;points=[];autosize=1;strokeColor=none;fillColor=none;fontSize=18;fontFamily=Helvetica;" parent="1" vertex="1">
          <mxGeometry x="135" y="470" width="20" height="70" as="geometry" />
        </mxCell>
        <mxCell id="aMBQikMxI9hOsdB5_Ojq-27" value="False" style="edgeStyle=orthogonalEdgeStyle;rounded=0;orthogonalLoop=1;jettySize=auto;html=1;strokeColor=default;jumpStyle=arc;entryX=-0.003;entryY=0.503;entryDx=0;entryDy=0;entryPerimeter=0;exitX=0;exitY=0.5;exitDx=0;exitDy=0;exitPerimeter=0;" parent="1" source="7kQUwR05Db2AxijS4nxS-29" edge="1">
          <mxGeometry x="-0.8568" relative="1" as="geometry">
            <mxPoint x="586.28" y="1160.2400000000002" as="targetPoint" />
            <Array as="points">
              <mxPoint x="490" y="450" />
              <mxPoint x="490" y="1160" />
            </Array>
            <mxPoint x="-1" as="offset" />
          </mxGeometry>
        </mxCell>
        <mxCell id="46vzF8AWeMYmQVMypL44-9" value="" style="edgeStyle=orthogonalEdgeStyle;rounded=0;orthogonalLoop=1;jettySize=auto;html=1;fontSize=12;" parent="1" source="7kQUwR05Db2AxijS4nxS-29" target="aMBQikMxI9hOsdB5_Ojq-44" edge="1">
          <mxGeometry relative="1" as="geometry" />
        </mxCell>
        <mxCell id="46vzF8AWeMYmQVMypL44-10" value="True" style="edgeLabel;html=1;align=center;verticalAlign=middle;resizable=0;points=[];fontSize=12;" parent="46vzF8AWeMYmQVMypL44-9" vertex="1" connectable="0">
          <mxGeometry x="0.0084" y="1" relative="1" as="geometry">
            <mxPoint as="offset" />
          </mxGeometry>
        </mxCell>
        <mxCell id="7kQUwR05Db2AxijS4nxS-29" value="Is data&lt;br&gt;epoched?" style="strokeWidth=2;html=1;shape=mxgraph.flowchart.decision;whiteSpace=wrap;fontFamily=Helvetica;" parent="1" vertex="1">
          <mxGeometry x="653" y="400" width="100" height="100" as="geometry" />
        </mxCell>
        <mxCell id="aMBQikMxI9hOsdB5_Ojq-9" value="" style="edgeStyle=orthogonalEdgeStyle;rounded=0;orthogonalLoop=1;jettySize=auto;html=1;" parent="1" target="aMBQikMxI9hOsdB5_Ojq-4" edge="1">
          <mxGeometry relative="1" as="geometry">
            <mxPoint x="702" y="-170" as="sourcePoint" />
          </mxGeometry>
        </mxCell>
        <mxCell id="aMBQikMxI9hOsdB5_Ojq-7" value="" style="edgeStyle=orthogonalEdgeStyle;rounded=0;orthogonalLoop=1;jettySize=auto;html=1;" parent="1" source="aMBQikMxI9hOsdB5_Ojq-2" target="aMBQikMxI9hOsdB5_Ojq-6" edge="1">
          <mxGeometry relative="1" as="geometry" />
        </mxCell>
        <mxCell id="aMBQikMxI9hOsdB5_Ojq-47" style="edgeStyle=orthogonalEdgeStyle;rounded=0;orthogonalLoop=1;jettySize=auto;html=1;entryX=0;entryY=0.5;entryDx=0;entryDy=0;jumpStyle=arc;jumpSize=11;exitX=0.3;exitY=1.025;exitDx=0;exitDy=0;exitPerimeter=0;" parent="1" source="aMBQikMxI9hOsdB5_Ojq-2" target="aMBQikMxI9hOsdB5_Ojq-45" edge="1">
          <mxGeometry relative="1" as="geometry">
            <mxPoint x="480" y="580" as="targetPoint" />
            <Array as="points">
              <mxPoint x="400" y="620" />
            </Array>
          </mxGeometry>
        </mxCell>
        <mxCell id="1AtDzPKfntDqfuypfexZ-1" style="edgeStyle=orthogonalEdgeStyle;rounded=0;orthogonalLoop=1;jettySize=auto;html=1;exitX=0.75;exitY=1;exitDx=0;exitDy=0;entryX=0.5;entryY=0;entryDx=0;entryDy=0;entryPerimeter=0;" parent="1" source="aMBQikMxI9hOsdB5_Ojq-2" target="7kQUwR05Db2AxijS4nxS-29" edge="1">
          <mxGeometry relative="1" as="geometry">
            <mxPoint x="500" y="170" as="targetPoint" />
            <Array as="points">
              <mxPoint x="480" y="-40" />
              <mxPoint x="480" y="380" />
              <mxPoint x="703" y="380" />
            </Array>
          </mxGeometry>
        </mxCell>
        <mxCell id="aMBQikMxI9hOsdB5_Ojq-2" value="Input:&lt;br&gt;&lt;br&gt;Raw data,&lt;br&gt;Config parameters&lt;br&gt;Optional: epochs" style="html=1;" parent="1" vertex="1">
          <mxGeometry x="340" y="-120" width="200" height="80" as="geometry" />
        </mxCell>
        <mxCell id="aMBQikMxI9hOsdB5_Ojq-3" value="" style="group" parent="1" vertex="1" connectable="0">
          <mxGeometry x="572" y="-120" width="250" height="90" as="geometry" />
        </mxCell>
        <mxCell id="aMBQikMxI9hOsdB5_Ojq-4" value="&lt;div style=&quot;border-color: var(--border-color);&quot;&gt;&lt;div style=&quot;border-color: var(--border-color);&quot;&gt;Calculate STD&amp;nbsp;of data for each channel over&amp;nbsp;&lt;b style=&quot;border-color: var(--border-color);&quot;&gt;all time series&lt;/b&gt;&lt;br style=&quot;border-color: var(--border-color);&quot;&gt;&lt;/div&gt;&lt;div style=&quot;border-color: var(--border-color);&quot;&gt;&lt;b style=&quot;border-color: var(--border-color);&quot;&gt;&lt;br style=&quot;border-color: var(--border-color);&quot;&gt;&lt;/b&gt;&lt;/div&gt;&lt;div style=&quot;border-color: var(--border-color);&quot;&gt;&lt;b style=&quot;border-color: var(--border-color);&quot;&gt;&lt;i style=&quot;border-color: var(--border-color);&quot;&gt;get_std_all_data()&lt;/i&gt;&lt;/b&gt;&lt;/div&gt;&lt;/div&gt;" style="html=1;align=center;verticalAlign=middle;rounded=1;absoluteArcSize=1;arcSize=25;dashed=0;fontFamily=Helvetica;fontSize=12;whiteSpace=wrap;container=0;noLabel=0;imageAlign=center;" parent="aMBQikMxI9hOsdB5_Ojq-3" vertex="1">
          <mxGeometry x="10" width="240" height="80" as="geometry" />
        </mxCell>
        <mxCell id="aMBQikMxI9hOsdB5_Ojq-5" value="pinOut 2" style="fontStyle=0;labelPosition=center;verticalLabelPosition=bottom;align=center;verticalAlign=top;spacingLeft=2;fontFamily=Helvetica;fontSize=12;resizable=0;container=0;noLabel=1;" parent="aMBQikMxI9hOsdB5_Ojq-3" vertex="1">
          <mxGeometry x="115" y="80" width="30" height="10" as="geometry" />
        </mxCell>
        <mxCell id="aMBQikMxI9hOsdB5_Ojq-6" value="pinIn 2" style="fontStyle=0;labelPosition=left;verticalLabelPosition=middle;align=right;verticalAlign=middle;spacingLeft=2;fontFamily=Helvetica;fontSize=12;flipH=0;resizable=0;container=0;noLabel=1;" parent="aMBQikMxI9hOsdB5_Ojq-3" vertex="1">
          <mxGeometry y="25" width="10" height="30" as="geometry" />
        </mxCell>
        <mxCell id="aMBQikMxI9hOsdB5_Ojq-21" value="" style="group;flipH=1;" parent="1" vertex="1" connectable="0">
          <mxGeometry x="582.84" y="30" width="250" height="90" as="geometry" />
        </mxCell>
        <mxCell id="aMBQikMxI9hOsdB5_Ojq-22" value="&lt;p style=&quot;border-color: var(--border-color);&quot;&gt;Add STD data into into channel objects&lt;br&gt;&lt;/p&gt;" style="html=1;align=center;verticalAlign=middle;rounded=1;absoluteArcSize=1;arcSize=25;dashed=0;fontFamily=Helvetica;fontSize=12;whiteSpace=wrap;container=0;noLabel=0;imageAlign=center;" parent="aMBQikMxI9hOsdB5_Ojq-21" vertex="1">
          <mxGeometry y="10" width="240" height="80" as="geometry" />
        </mxCell>
        <mxCell id="aMBQikMxI9hOsdB5_Ojq-23" value="pinIn 2" style="fontStyle=0;labelPosition=left;verticalLabelPosition=middle;align=right;verticalAlign=middle;spacingLeft=2;fontFamily=Helvetica;fontSize=12;flipH=0;resizable=0;container=0;noLabel=1;" parent="aMBQikMxI9hOsdB5_Ojq-21" vertex="1">
          <mxGeometry x="240" y="35" width="10" height="30" as="geometry" />
        </mxCell>
        <mxCell id="aMBQikMxI9hOsdB5_Ojq-24" value="pinIn 1" style="fontStyle=0;labelPosition=center;verticalLabelPosition=top;align=center;verticalAlign=bottom;spacingLeft=2;fontFamily=Helvetica;fontSize=12;resizable=0;container=0;noLabel=1;" parent="aMBQikMxI9hOsdB5_Ojq-21" vertex="1">
          <mxGeometry x="105" width="30" height="10" as="geometry" />
        </mxCell>
        <mxCell id="aMBQikMxI9hOsdB5_Ojq-43" value="" style="group;flipV=1;whiteSpace=wrap;" parent="1" vertex="1" connectable="0">
          <mxGeometry x="575" y="580" width="278.84000000000003" height="109" as="geometry" />
        </mxCell>
        <mxCell id="aMBQikMxI9hOsdB5_Ojq-44" value="&lt;span style=&quot;border-color: var(--border-color); background-color: initial;&quot;&gt;Calculate&lt;/span&gt;&lt;b style=&quot;border-color: var(--border-color); background-color: initial;&quot;&gt;&amp;nbsp;&lt;/b&gt;&lt;span style=&quot;border-color: var(--border-color); background-color: initial;&quot;&gt;channel-wise&lt;/span&gt;&lt;b style=&quot;border-color: var(--border-color); background-color: initial;&quot;&gt;&amp;nbsp;&lt;/b&gt;&lt;span style=&quot;border-color: var(--border-color); background-color: initial;&quot;&gt;STD&amp;nbsp;&lt;/span&gt;&lt;span style=&quot;border-color: var(--border-color); background-color: initial;&quot;&gt;&lt;span style=&quot;font-weight: 400; border-color: var(--border-color); background-color: initial;&quot;&gt;&lt;br&gt;&lt;/span&gt;&lt;span style=&quot;border-color: var(--border-color); background-color: initial;&quot;&gt;for&lt;/span&gt;&lt;b style=&quot;font-weight: bold; border-color: var(--border-color); background-color: initial;&quot;&gt;&amp;nbsp;epochs&lt;br&gt;&lt;br style=&quot;border-color: var(--border-color);&quot;&gt;&lt;i style=&quot;border-color: var(--border-color);&quot;&gt;get_std_epochs()&lt;/i&gt;&lt;/b&gt;&lt;br&gt;&lt;/span&gt;" style="html=1;align=center;verticalAlign=middle;rounded=1;absoluteArcSize=1;arcSize=25;dashed=0;fontFamily=Helvetica;fontSize=12;whiteSpace=wrap;container=0;noLabel=0;imageAlign=center;" parent="aMBQikMxI9hOsdB5_Ojq-43" vertex="1">
          <mxGeometry x="10" width="240" height="80" as="geometry" />
        </mxCell>
        <mxCell id="aMBQikMxI9hOsdB5_Ojq-45" value="pinIn 2" style="fontStyle=0;labelPosition=left;verticalLabelPosition=middle;align=right;verticalAlign=middle;spacingLeft=2;fontFamily=Helvetica;fontSize=12;flipH=0;resizable=0;container=0;noLabel=1;" parent="aMBQikMxI9hOsdB5_Ojq-43" vertex="1">
          <mxGeometry y="25" width="10" height="30" as="geometry" />
        </mxCell>
        <mxCell id="ryDxuC_csgY444cvxS1o-98" style="edgeStyle=orthogonalEdgeStyle;rounded=0;jumpStyle=arc;jumpSize=11;orthogonalLoop=1;jettySize=auto;html=1;entryX=0;entryY=0.5;entryDx=0;entryDy=0;strokeColor=default;endSize=6;exitX=0.25;exitY=1;exitDx=0;exitDy=0;" parent="aMBQikMxI9hOsdB5_Ojq-43" source="ryDxuC_csgY444cvxS1o-49" target="ryDxuC_csgY444cvxS1o-94" edge="1">
          <mxGeometry relative="1" as="geometry">
            <Array as="points">
              <mxPoint x="125" y="90" />
              <mxPoint x="125" y="100" />
              <mxPoint x="-19" y="100" />
              <mxPoint x="-19" y="351" />
            </Array>
          </mxGeometry>
        </mxCell>
        <mxCell id="ryDxuC_csgY444cvxS1o-49" value="pinIn 1" style="fontStyle=0;labelPosition=center;verticalLabelPosition=top;align=center;verticalAlign=bottom;spacingLeft=2;fontFamily=Helvetica;fontSize=12;resizable=0;container=0;noLabel=1;" parent="aMBQikMxI9hOsdB5_Ojq-43" vertex="1">
          <mxGeometry x="114" y="80" width="30" height="10" as="geometry" />
        </mxCell>
        <mxCell id="ryDxuC_csgY444cvxS1o-91" value="" style="group" parent="aMBQikMxI9hOsdB5_Ojq-43" vertex="1" connectable="0">
          <mxGeometry x="11" y="270" width="251.84000000000003" height="159" as="geometry" />
        </mxCell>
        <mxCell id="ryDxuC_csgY444cvxS1o-92" value="&lt;div style=&quot;border-color: var(--border-color);&quot;&gt;&lt;div style=&quot;border-color: var(--border-color);&quot;&gt;&lt;div style=&quot;border-color: var(--border-color);&quot;&gt;&lt;font style=&quot;border-color: var(--border-color);&quot;&gt;Find&amp;nbsp;&lt;b style=&quot;border-color: var(--border-color);&quot;&gt;epochs&lt;/b&gt;&amp;nbsp;with high STD (noisy)&amp;nbsp;and small STD (flat):&amp;nbsp;&lt;br style=&quot;border-color: var(--border-color);&quot;&gt;&lt;br&gt;&lt;/font&gt;&lt;/div&gt;&lt;div style=&quot;border-color: var(--border-color);&quot;&gt;&lt;font style=&quot;border-color: var(--border-color);&quot;&gt;Save STD data for&amp;nbsp;&lt;b style=&quot;border-color: var(--border-color);&quot;&gt;epochs&lt;/b&gt;&amp;nbsp;in DataFrames as QC_derivative&lt;/font&gt;&lt;/div&gt;&lt;div style=&quot;border-color: var(--border-color);&quot;&gt;&lt;font style=&quot;border-color: var(--border-color);&quot;&gt;&lt;b style=&quot;border-color: var(--border-color);&quot;&gt;&lt;i style=&quot;border-color: var(--border-color);&quot;&gt;get_noisy_flat_std_ptp_epochs()&lt;/i&gt;&lt;/b&gt;&lt;/font&gt;&lt;/div&gt;&lt;/div&gt;&lt;/div&gt;" style="html=1;align=center;verticalAlign=middle;rounded=1;absoluteArcSize=1;arcSize=25;dashed=0;fontFamily=Helvetica;fontSize=12;whiteSpace=wrap;container=0;noLabel=0;imageAlign=center;" parent="ryDxuC_csgY444cvxS1o-91" vertex="1">
          <mxGeometry y="10" width="241.92" height="139" as="geometry" />
        </mxCell>
        <mxCell id="ryDxuC_csgY444cvxS1o-93" value="pinOut 1" style="fontStyle=0;labelPosition=right;verticalLabelPosition=middle;align=left;verticalAlign=middle;spacingLeft=2;fontFamily=Helvetica;fontSize=12;resizable=0;container=0;noLabel=1;" parent="ryDxuC_csgY444cvxS1o-91" vertex="1">
          <mxGeometry x="241.84000000000003" y="62.5" width="10" height="30" as="geometry" />
        </mxCell>
        <mxCell id="ryDxuC_csgY444cvxS1o-94" value="pinOut 1" style="fontStyle=0;labelPosition=right;verticalLabelPosition=middle;align=left;verticalAlign=middle;spacingLeft=2;fontFamily=Helvetica;fontSize=12;resizable=0;container=0;noLabel=1;" parent="ryDxuC_csgY444cvxS1o-91" vertex="1">
          <mxGeometry x="-9.999999999999886" y="65.5" width="10" height="30" as="geometry" />
        </mxCell>
        <mxCell id="ryDxuC_csgY444cvxS1o-45" value="" style="group" parent="1" vertex="1" connectable="0">
          <mxGeometry x="582.84" y="200" width="251.84000000000003" height="159" as="geometry" />
        </mxCell>
        <mxCell id="aMBQikMxI9hOsdB5_Ojq-66" value="&lt;div style=&quot;border-color: var(--border-color);&quot;&gt;&lt;div style=&quot;border-color: var(--border-color);&quot;&gt;&lt;font style=&quot;border-color: var(--border-color);&quot;&gt;Find channels with high STD (noisy)&amp;nbsp;&lt;/font&gt;&lt;/div&gt;&lt;div style=&quot;border-color: var(--border-color);&quot;&gt;&lt;font style=&quot;border-color: var(--border-color);&quot;&gt;and small STD (flat) over &lt;b&gt;all time series&lt;/b&gt;.&lt;/font&gt;&lt;/div&gt;&lt;div style=&quot;border-color: var(--border-color);&quot;&gt;&lt;font style=&quot;border-color: var(--border-color);&quot;&gt;&lt;br style=&quot;border-color: var(--border-color);&quot;&gt;&lt;/font&gt;&lt;/div&gt;&lt;div style=&quot;border-color: var(--border-color);&quot;&gt;&lt;font style=&quot;border-color: var(--border-color);&quot;&gt;Save STD data for&amp;nbsp;&lt;b style=&quot;border-color: var(--border-color);&quot;&gt;all time series&lt;/b&gt;&amp;nbsp;in DataFrames as QC_derivative&lt;/font&gt;&lt;/div&gt;&lt;b style=&quot;border-color: var(--border-color);&quot;&gt;&lt;i style=&quot;border-color: var(--border-color);&quot;&gt;&lt;font style=&quot;border-color: var(--border-color);&quot; face=&quot;Courier New&quot;&gt;&lt;br style=&quot;border-color: var(--border-color);&quot;&gt;&lt;/font&gt;get_big_small_std_ptp_all_data()&lt;/i&gt;&lt;/b&gt;&lt;br&gt;&lt;/div&gt;" style="html=1;align=center;verticalAlign=middle;rounded=1;absoluteArcSize=1;arcSize=25;dashed=0;fontFamily=Helvetica;fontSize=12;whiteSpace=wrap;container=0;noLabel=0;imageAlign=center;" parent="ryDxuC_csgY444cvxS1o-45" vertex="1">
          <mxGeometry y="10" width="241.92" height="139" as="geometry" />
        </mxCell>
        <mxCell id="aMBQikMxI9hOsdB5_Ojq-68" value="pinOut 1" style="fontStyle=0;labelPosition=right;verticalLabelPosition=middle;align=left;verticalAlign=middle;spacingLeft=2;fontFamily=Helvetica;fontSize=12;resizable=0;container=0;noLabel=1;" parent="ryDxuC_csgY444cvxS1o-45" vertex="1">
          <mxGeometry x="241.84000000000003" y="62.5" width="10" height="30" as="geometry" />
        </mxCell>
        <mxCell id="ryDxuC_csgY444cvxS1o-67" value="pinOut 1" style="fontStyle=0;labelPosition=right;verticalLabelPosition=middle;align=left;verticalAlign=middle;spacingLeft=2;fontFamily=Helvetica;fontSize=12;resizable=0;container=0;noLabel=1;" parent="ryDxuC_csgY444cvxS1o-45" vertex="1">
          <mxGeometry x="-9.999999999999886" y="65.5" width="10" height="30" as="geometry" />
        </mxCell>
        <mxCell id="ryDxuC_csgY444cvxS1o-52" value="" style="group" parent="1" vertex="1" connectable="0">
          <mxGeometry x="577.84" y="720" width="260" height="90" as="geometry" />
        </mxCell>
        <mxCell id="ryDxuC_csgY444cvxS1o-53" value="&lt;p style=&quot;border-color: var(--border-color);&quot;&gt;Add epoched STD data into into channel objects&lt;br&gt;&lt;/p&gt;&lt;p style=&quot;border-color: var(--border-color);&quot;&gt;&lt;b style=&quot;border-color: var(--border-color);&quot;&gt;&lt;i style=&quot;border-color: var(--border-color);&quot;&gt;assign_epoched_std_ptp_to_channels()&lt;/i&gt;&lt;/b&gt;&lt;/p&gt;" style="html=1;align=center;verticalAlign=middle;rounded=1;absoluteArcSize=1;arcSize=25;dashed=0;fontFamily=Helvetica;fontSize=12;whiteSpace=wrap;container=0;noLabel=0;imageAlign=center;" parent="ryDxuC_csgY444cvxS1o-52" vertex="1">
          <mxGeometry x="10" y="10" width="240" height="80" as="geometry" />
        </mxCell>
        <mxCell id="ryDxuC_csgY444cvxS1o-54" value="pinOut 1" style="fontStyle=0;labelPosition=right;verticalLabelPosition=middle;align=left;verticalAlign=middle;spacingLeft=2;fontFamily=Helvetica;fontSize=12;resizable=0;container=0;noLabel=1;" parent="ryDxuC_csgY444cvxS1o-52" vertex="1">
          <mxGeometry x="250" y="35" width="10" height="30" as="geometry" />
        </mxCell>
        <mxCell id="ryDxuC_csgY444cvxS1o-88" value="pinIn 1" style="fontStyle=0;labelPosition=center;verticalLabelPosition=top;align=center;verticalAlign=bottom;spacingLeft=2;fontFamily=Helvetica;fontSize=12;resizable=0;container=0;noLabel=1;" parent="ryDxuC_csgY444cvxS1o-52" vertex="1">
          <mxGeometry x="111" width="30" height="10" as="geometry" />
        </mxCell>
        <mxCell id="ryDxuC_csgY444cvxS1o-62" value="" style="edgeStyle=orthogonalEdgeStyle;rounded=0;jumpStyle=arc;jumpSize=11;orthogonalLoop=1;jettySize=auto;html=1;strokeColor=default;endSize=6;" parent="1" source="aMBQikMxI9hOsdB5_Ojq-5" target="aMBQikMxI9hOsdB5_Ojq-24" edge="1">
          <mxGeometry relative="1" as="geometry" />
        </mxCell>
        <mxCell id="ryDxuC_csgY444cvxS1o-63" style="edgeStyle=orthogonalEdgeStyle;rounded=0;jumpStyle=arc;jumpSize=11;orthogonalLoop=1;jettySize=auto;html=1;strokeColor=default;endSize=6;exitX=0.25;exitY=1;exitDx=0;exitDy=0;entryX=-0.053;entryY=0.483;entryDx=0;entryDy=0;entryPerimeter=0;" parent="1" source="aMBQikMxI9hOsdB5_Ojq-5" target="ryDxuC_csgY444cvxS1o-67" edge="1">
          <mxGeometry relative="1" as="geometry">
            <mxPoint x="570" y="270" as="targetPoint" />
            <Array as="points">
              <mxPoint x="695" y="-20" />
              <mxPoint x="550" y="-20" />
              <mxPoint x="550" y="280" />
            </Array>
          </mxGeometry>
        </mxCell>
        <mxCell id="ryDxuC_csgY444cvxS1o-70" value="1" style="ellipse;html=1;" parent="1" vertex="1">
          <mxGeometry x="865" y="262.5" width="30" height="30" as="geometry" />
        </mxCell>
        <mxCell id="ryDxuC_csgY444cvxS1o-72" value="A" style="ellipse;html=1;" parent="1" vertex="1">
          <mxGeometry x="865" y="65" width="30" height="30" as="geometry" />
        </mxCell>
        <mxCell id="ryDxuC_csgY444cvxS1o-73" value="" style="edgeStyle=orthogonalEdgeStyle;rounded=0;jumpStyle=arc;jumpSize=11;orthogonalLoop=1;jettySize=auto;html=1;strokeColor=default;endSize=6;" parent="1" source="aMBQikMxI9hOsdB5_Ojq-23" target="ryDxuC_csgY444cvxS1o-72" edge="1">
          <mxGeometry relative="1" as="geometry" />
        </mxCell>
        <mxCell id="ryDxuC_csgY444cvxS1o-97" value="" style="edgeStyle=orthogonalEdgeStyle;rounded=0;jumpStyle=arc;jumpSize=11;orthogonalLoop=1;jettySize=auto;html=1;strokeColor=default;endSize=6;" parent="1" source="ryDxuC_csgY444cvxS1o-49" target="ryDxuC_csgY444cvxS1o-88" edge="1">
          <mxGeometry relative="1" as="geometry" />
        </mxCell>
        <mxCell id="a6xhGmGbr4ltdyGXMzYR-1" value="&lt;div style=&quot;background-color: rgb(255, 255, 255); font-size: 12px; line-height: 18px;&quot;&gt;&lt;div style=&quot;&quot;&gt;Defining a noisy/fat channel:&lt;/div&gt;&lt;div style=&quot;&quot;&gt;&lt;b&gt;Threshold for noisy&lt;/b&gt; = mean + multiplier*std, above it - noisy&lt;/div&gt;&lt;div style=&quot;border-color: var(--border-color);&quot;&gt;&lt;b style=&quot;border-color: var(--border-color);&quot;&gt;Threshold for flat&lt;/b&gt;&amp;nbsp;= mean - multiplier*std, below it - flat&lt;/div&gt;&lt;div style=&quot;&quot;&gt;&lt;br&gt;&lt;/div&gt;&lt;div style=&quot;&quot;&gt;Definition of terms:&lt;/div&gt;&lt;div style=&quot;&quot;&gt;&lt;span style=&quot;font-weight: normal;&quot;&gt;    - &lt;/span&gt;&lt;b&gt;&lt;i&gt;mean &lt;/i&gt;&lt;/b&gt;is mean std value over all channels&lt;/div&gt;&lt;div style=&quot;&quot;&gt;&lt;span style=&quot;font-weight: normal;&quot;&gt;    -&lt;/span&gt;&lt;b&gt;&lt;i&gt; std&lt;/i&gt;&lt;/b&gt; is standard deviation of std values over all channels&lt;/div&gt;&lt;div style=&quot;&quot;&gt;&lt;span style=&quot;font-weight: normal;&quot;&gt;    - &lt;/span&gt;&lt;b&gt;&lt;i&gt;multiplier&lt;/i&gt;&lt;/b&gt; is a parameter set in config, defines how many stds &lt;br&gt;above/below mean should be taken as threshold.&lt;/div&gt;&lt;div style=&quot;font-weight: normal;&quot;&gt;    &lt;/div&gt;&lt;div style=&quot;&quot;&gt;&lt;b&gt;&lt;br&gt;&lt;/b&gt;&lt;/div&gt;&lt;div style=&quot;&quot;&gt;&lt;br&gt;&lt;/div&gt;&lt;/div&gt;" style="text;html=1;align=center;verticalAlign=middle;resizable=0;points=[];autosize=1;strokeColor=none;fillColor=none;" parent="1" vertex="1">
          <mxGeometry x="1020" y="200" width="360" height="210" as="geometry" />
        </mxCell>
        <mxCell id="a6xhGmGbr4ltdyGXMzYR-3" value="&lt;div style=&quot;background-color: rgb(255, 255, 255); font-size: 12px; line-height: 18px;&quot;&gt;&lt;div style=&quot;font-weight: normal;&quot;&gt;&lt;span style=&quot;&quot;&gt;Defining a noisy/flat epoch:&lt;/span&gt;&lt;/div&gt;&lt;div style=&quot;&quot;&gt;&lt;span style=&quot;font-weight: normal;&quot;&gt;1)&amp;nbsp;&lt;/span&gt;If std of this channel for this epoch is over the mean std of this channel&lt;/div&gt;&lt;div style=&quot;font-weight: normal; line-height: 18px;&quot;&gt;&lt;div&gt;&lt;span style=&quot;&quot;&gt;for all epochs together * flat multiplyer, then&amp;nbsp;&lt;/span&gt;&amp;nbsp;&lt;/div&gt;&lt;div&gt;&lt;b style=&quot;border-color: var(--border-color);&quot;&gt;the data for this channel in this epoch is noisy&lt;/b&gt;.&lt;/div&gt;&lt;div&gt;If std of this channel for this epoch is under the mean std of this channel&lt;br style=&quot;border-color: var(--border-color);&quot;&gt;for all epochs together * noisy multiplyer, then&amp;nbsp;&lt;/div&gt;&lt;div&gt;&lt;b style=&quot;border-color: var(--border-color);&quot;&gt;the data for this channel in this epoch is flat&lt;/b&gt;.&lt;br&gt;&lt;/div&gt;&lt;div&gt;&lt;span style=&quot;&quot;&gt;    Multiplyer is set by user in the config file.&lt;/span&gt;&lt;/div&gt;&lt;/div&gt;&lt;div style=&quot;font-weight: normal;&quot;&gt;&lt;span style=&quot;&quot;&gt;2)&amp;nbsp;&lt;/span&gt;If more than ...% of channels are noisy/flat, then this epoch is noisy/flat.&lt;/div&gt;&lt;div style=&quot;font-weight: normal; line-height: 18px;&quot;&gt;&lt;div style=&quot;&quot;&gt;&lt;span style=&quot;&quot;&gt;    Percent is set by user in the config file.&lt;/span&gt;&lt;/div&gt;&lt;/div&gt;&lt;/div&gt;" style="text;html=1;align=center;verticalAlign=middle;resizable=0;points=[];autosize=1;strokeColor=none;fillColor=none;fontColor=#000000;" parent="1" vertex="1">
          <mxGeometry x="1020" y="830" width="420" height="190" as="geometry" />
        </mxCell>
        <mxCell id="Fm8zJy_Zixp_8o91QrfI-1" value="" style="ellipse;fillColor=strokeColor;" parent="1" vertex="1">
          <mxGeometry x="688" y="-200" width="30" height="30" as="geometry" />
        </mxCell>
        <mxCell id="BsgKtsqFPWDdYAJNAkbm-1" value="" style="edgeStyle=orthogonalEdgeStyle;rounded=0;orthogonalLoop=1;jettySize=auto;html=1;" edge="1" parent="1" source="aMBQikMxI9hOsdB5_Ojq-68" target="ryDxuC_csgY444cvxS1o-70">
          <mxGeometry relative="1" as="geometry" />
        </mxCell>
        <mxCell id="BsgKtsqFPWDdYAJNAkbm-3" value="B" style="ellipse;html=1;" vertex="1" parent="1">
          <mxGeometry x="865" y="755" width="30" height="30" as="geometry" />
        </mxCell>
        <mxCell id="BsgKtsqFPWDdYAJNAkbm-6" value="" style="edgeStyle=orthogonalEdgeStyle;rounded=0;orthogonalLoop=1;jettySize=auto;html=1;" edge="1" parent="1" source="ryDxuC_csgY444cvxS1o-54" target="BsgKtsqFPWDdYAJNAkbm-3">
          <mxGeometry relative="1" as="geometry" />
        </mxCell>
        <mxCell id="BsgKtsqFPWDdYAJNAkbm-7" value="2" style="ellipse;html=1;" vertex="1" parent="1">
          <mxGeometry x="865" y="912.5" width="30" height="30" as="geometry" />
        </mxCell>
        <mxCell id="BsgKtsqFPWDdYAJNAkbm-9" value="" style="edgeStyle=orthogonalEdgeStyle;rounded=0;orthogonalLoop=1;jettySize=auto;html=1;" edge="1" parent="1" source="ryDxuC_csgY444cvxS1o-93" target="BsgKtsqFPWDdYAJNAkbm-7">
          <mxGeometry relative="1" as="geometry" />
        </mxCell>
        <mxCell id="BsgKtsqFPWDdYAJNAkbm-10" value="Output:&lt;br&gt;&lt;br&gt;List of QC derivatives (tsvs) &lt;br&gt;for &lt;b&gt;all data +&amp;nbsp; optional: for epochs&lt;/b&gt;&lt;br&gt;Dict as Simple metric" style="html=1;dashed=0;fontFamily=Helvetica;fontSize=12;fontColor=rgb(0, 0, 0);align=center;strokeColor=rgb(0, 0, 0);fillColor=rgb(255, 255, 255);" vertex="1" parent="1">
          <mxGeometry x="990" y="1200" width="200" height="90" as="geometry" />
        </mxCell>
        <mxCell id="BsgKtsqFPWDdYAJNAkbm-11" value="" style="group" vertex="1" connectable="0" parent="1">
          <mxGeometry x="577" y="1110.0000000000002" width="260" height="100" as="geometry" />
        </mxCell>
        <mxCell id="BsgKtsqFPWDdYAJNAkbm-12" value="&lt;p style=&quot;border-color: var(--border-color);&quot;&gt;&lt;font style=&quot;border-color: var(--border-color);&quot;&gt;Save STD data of noisy/flat channels for&amp;nbsp;&lt;b style=&quot;border-color: var(--border-color);&quot;&gt;all times series&lt;/b&gt;&amp;nbsp;+&amp;nbsp;&lt;/font&gt;noisy/flat&amp;nbsp;&lt;b style=&quot;border-color: var(--border-color);&quot;&gt;epochs&lt;/b&gt;&amp;nbsp;in a dictionary&lt;br style=&quot;border-color: var(--border-color);&quot;&gt;&lt;/p&gt;&lt;p style=&quot;border-color: var(--border-color);&quot;&gt;&lt;b style=&quot;border-color: var(--border-color);&quot;&gt;&lt;i style=&quot;border-color: var(--border-color);&quot;&gt;make_simple_metric_ptp_manual()&lt;/i&gt;&lt;/b&gt;&lt;/p&gt;" style="html=1;align=center;verticalAlign=middle;rounded=1;absoluteArcSize=1;arcSize=25;dashed=0;fontFamily=Helvetica;fontSize=12;whiteSpace=wrap;container=0;noLabel=0;imageAlign=center;" vertex="1" parent="BsgKtsqFPWDdYAJNAkbm-11">
          <mxGeometry x="10" y="10" width="240" height="80" as="geometry" />
        </mxCell>
        <mxCell id="BsgKtsqFPWDdYAJNAkbm-13" value="pinOut 1" style="fontStyle=0;labelPosition=right;verticalLabelPosition=middle;align=left;verticalAlign=middle;spacingLeft=2;fontFamily=Helvetica;fontSize=12;resizable=0;container=0;noLabel=1;" vertex="1" parent="BsgKtsqFPWDdYAJNAkbm-11">
          <mxGeometry x="250" y="35" width="10" height="30" as="geometry" />
        </mxCell>
        <mxCell id="BsgKtsqFPWDdYAJNAkbm-14" value="pinIn 1" style="fontStyle=0;labelPosition=center;verticalLabelPosition=top;align=center;verticalAlign=bottom;spacingLeft=2;fontFamily=Helvetica;fontSize=12;resizable=0;container=0;noLabel=1;" vertex="1" parent="BsgKtsqFPWDdYAJNAkbm-11">
          <mxGeometry x="35" width="30" height="10" as="geometry" />
        </mxCell>
        <mxCell id="BsgKtsqFPWDdYAJNAkbm-15" value="pinIn 1" style="fontStyle=0;labelPosition=center;verticalLabelPosition=top;align=center;verticalAlign=bottom;spacingLeft=2;fontFamily=Helvetica;fontSize=12;resizable=0;container=0;noLabel=1;" vertex="1" parent="BsgKtsqFPWDdYAJNAkbm-11">
          <mxGeometry x="191" width="30" height="10" as="geometry" />
        </mxCell>
        <mxCell id="BsgKtsqFPWDdYAJNAkbm-16" style="edgeStyle=orthogonalEdgeStyle;rounded=0;jumpStyle=arc;jumpSize=11;orthogonalLoop=1;jettySize=auto;html=1;entryX=0.5;entryY=0;entryDx=0;entryDy=0;strokeColor=default;endSize=6;" edge="1" parent="1" source="BsgKtsqFPWDdYAJNAkbm-17" target="BsgKtsqFPWDdYAJNAkbm-14">
          <mxGeometry relative="1" as="geometry" />
        </mxCell>
        <mxCell id="BsgKtsqFPWDdYAJNAkbm-17" value="1" style="ellipse;html=1;" vertex="1" parent="1">
          <mxGeometry x="612" y="1060" width="30" height="30" as="geometry" />
        </mxCell>
        <mxCell id="BsgKtsqFPWDdYAJNAkbm-18" style="edgeStyle=orthogonalEdgeStyle;rounded=0;orthogonalLoop=1;jettySize=auto;html=1;entryX=0.5;entryY=0;entryDx=0;entryDy=0;" edge="1" parent="1" source="BsgKtsqFPWDdYAJNAkbm-13" target="BsgKtsqFPWDdYAJNAkbm-10">
          <mxGeometry relative="1" as="geometry">
            <mxPoint x="950" y="1120" as="targetPoint" />
            <Array as="points">
              <mxPoint x="1090" y="1160" />
            </Array>
          </mxGeometry>
        </mxCell>
        <mxCell id="BsgKtsqFPWDdYAJNAkbm-19" style="edgeStyle=orthogonalEdgeStyle;rounded=0;orthogonalLoop=1;jettySize=auto;html=1;entryX=0.5;entryY=0;entryDx=0;entryDy=0;" edge="1" parent="1" source="BsgKtsqFPWDdYAJNAkbm-20" target="BsgKtsqFPWDdYAJNAkbm-15">
          <mxGeometry relative="1" as="geometry" />
        </mxCell>
        <mxCell id="BsgKtsqFPWDdYAJNAkbm-20" value="2" style="ellipse;html=1;" vertex="1" parent="1">
          <mxGeometry x="768" y="1059" width="30" height="30" as="geometry" />
        </mxCell>
        <mxCell id="BsgKtsqFPWDdYAJNAkbm-21" value="" style="group" vertex="1" connectable="0" parent="1">
          <mxGeometry x="580" y="1281.0000000000002" width="260" height="100" as="geometry" />
        </mxCell>
        <mxCell id="BsgKtsqFPWDdYAJNAkbm-22" value="&lt;p style=&quot;border-color: var(--border-color);&quot;&gt;&lt;font style=&quot;border-color: var(--border-color);&quot;&gt;Save STD data of all channels for&amp;nbsp;&lt;b style=&quot;border-color: var(--border-color);&quot;&gt;all times series&lt;/b&gt;&amp;nbsp;+&amp;nbsp;&lt;/font&gt;&lt;b style=&quot;border-color: var(--border-color);&quot;&gt;epochs&lt;/b&gt;&amp;nbsp;in a TSV file&lt;br style=&quot;border-color: var(--border-color);&quot;&gt;&lt;/p&gt;&lt;p style=&quot;border-color: var(--border-color);&quot;&gt;&lt;b style=&quot;border-color: var(--border-color);&quot;&gt;&lt;i style=&quot;border-color: var(--border-color);&quot;&gt;chs_dict_to_csv()&lt;/i&gt;&lt;/b&gt;&lt;/p&gt;" style="html=1;align=center;verticalAlign=middle;rounded=1;absoluteArcSize=1;arcSize=25;dashed=0;fontFamily=Helvetica;fontSize=12;whiteSpace=wrap;container=0;noLabel=0;imageAlign=center;" vertex="1" parent="BsgKtsqFPWDdYAJNAkbm-21">
          <mxGeometry x="10" y="10" width="240" height="80" as="geometry" />
        </mxCell>
        <mxCell id="BsgKtsqFPWDdYAJNAkbm-23" value="pinOut 1" style="fontStyle=0;labelPosition=right;verticalLabelPosition=middle;align=left;verticalAlign=middle;spacingLeft=2;fontFamily=Helvetica;fontSize=12;resizable=0;container=0;noLabel=1;" vertex="1" parent="BsgKtsqFPWDdYAJNAkbm-21">
          <mxGeometry x="250" y="35" width="10" height="30" as="geometry" />
        </mxCell>
        <mxCell id="BsgKtsqFPWDdYAJNAkbm-24" value="pinIn 1" style="fontStyle=0;labelPosition=center;verticalLabelPosition=top;align=center;verticalAlign=bottom;spacingLeft=2;fontFamily=Helvetica;fontSize=12;resizable=0;container=0;noLabel=1;" vertex="1" parent="BsgKtsqFPWDdYAJNAkbm-21">
          <mxGeometry x="35" width="30" height="10" as="geometry" />
        </mxCell>
        <mxCell id="BsgKtsqFPWDdYAJNAkbm-25" value="pinIn 1" style="fontStyle=0;labelPosition=center;verticalLabelPosition=top;align=center;verticalAlign=bottom;spacingLeft=2;fontFamily=Helvetica;fontSize=12;resizable=0;container=0;noLabel=1;" vertex="1" parent="BsgKtsqFPWDdYAJNAkbm-21">
          <mxGeometry x="191" width="30" height="10" as="geometry" />
        </mxCell>
        <mxCell id="BsgKtsqFPWDdYAJNAkbm-26" value="" style="edgeStyle=orthogonalEdgeStyle;rounded=0;orthogonalLoop=1;jettySize=auto;html=1;" edge="1" parent="1">
          <mxGeometry relative="1" as="geometry">
            <mxPoint x="709" y="1371" as="sourcePoint" />
            <mxPoint x="709.8400000000001" y="1411" as="targetPoint" />
          </mxGeometry>
        </mxCell>
        <mxCell id="BsgKtsqFPWDdYAJNAkbm-27" style="edgeStyle=orthogonalEdgeStyle;rounded=0;jumpStyle=arc;jumpSize=11;orthogonalLoop=1;jettySize=auto;html=1;entryX=0.5;entryY=0;entryDx=0;entryDy=0;strokeColor=default;endSize=6;" edge="1" parent="1" source="BsgKtsqFPWDdYAJNAkbm-28" target="BsgKtsqFPWDdYAJNAkbm-24">
          <mxGeometry relative="1" as="geometry" />
        </mxCell>
        <mxCell id="BsgKtsqFPWDdYAJNAkbm-28" value="A" style="ellipse;html=1;" vertex="1" parent="1">
          <mxGeometry x="615" y="1231" width="30" height="30" as="geometry" />
        </mxCell>
        <mxCell id="BsgKtsqFPWDdYAJNAkbm-29" value="" style="ellipse;html=1;shape=endState;fillColor=strokeColor;" vertex="1" parent="1">
          <mxGeometry x="696" y="1411" width="30" height="30" as="geometry" />
        </mxCell>
        <mxCell id="BsgKtsqFPWDdYAJNAkbm-30" style="edgeStyle=orthogonalEdgeStyle;rounded=0;orthogonalLoop=1;jettySize=auto;html=1;entryX=0.5;entryY=0;entryDx=0;entryDy=0;" edge="1" parent="1" source="BsgKtsqFPWDdYAJNAkbm-31" target="BsgKtsqFPWDdYAJNAkbm-25">
          <mxGeometry relative="1" as="geometry" />
        </mxCell>
        <mxCell id="BsgKtsqFPWDdYAJNAkbm-31" value="B" style="ellipse;html=1;" vertex="1" parent="1">
          <mxGeometry x="771" y="1230" width="30" height="30" as="geometry" />
        </mxCell>
        <mxCell id="BsgKtsqFPWDdYAJNAkbm-32" style="edgeStyle=orthogonalEdgeStyle;rounded=0;orthogonalLoop=1;jettySize=auto;html=1;entryX=0.5;entryY=1;entryDx=0;entryDy=0;" edge="1" parent="1" source="BsgKtsqFPWDdYAJNAkbm-23" target="BsgKtsqFPWDdYAJNAkbm-10">
          <mxGeometry relative="1" as="geometry" />
        </mxCell>
      </root>
    </mxGraphModel>
  </diagram>
</mxfile>
